<svg width="143" height="235" viewBox="0 0 143 235" fill="none" xmlns="http://www.w3.org/2000/svg">
<g id="Clip path group">
<mask id="mask0_11032_990" style="mask-type:luminance" maskUnits="userSpaceOnUse" x="0" y="0" width="143" height="235">
<g id="d28a4dbaf9">
<path id="Vector" d="M0 0.773315H143V234.225H0V0.773315Z" fill="white"/>
</g>
</mask>
<g mask="url(#mask0_11032_990)">
<g id="Group">
<path id="Vector_2" d="M73.2482 63.2371C73.3568 64.8639 73.5068 66.4823 73.6999 68.0894C73.893 69.6965 74.1275 71.2896 74.4016 72.8629C74.6774 74.4391 74.9929 75.9927 75.3481 77.5239C75.705 79.055 76.0998 80.5608 76.5325 82.0384C76.967 83.5133 77.4376 84.96 77.9462 86.3701C78.4548 87.783 78.9996 89.1565 79.5789 90.4934C80.1599 91.8303 80.7737 93.125 81.4202 94.3775C82.0667 95.63 82.746 96.8346 83.4546 97.9942C84.1649 99.151 84.9028 100.26 85.67 101.315C86.4372 102.371 87.2303 103.373 88.0475 104.319C88.8664 105.267 89.7095 106.154 90.5732 106.987C91.4387 107.817 92.3231 108.585 93.2283 109.295C94.1334 110.001 95.054 110.646 95.9936 111.228C96.9315 111.808 97.8832 112.323 98.847 112.774C99.8124 113.221 100.787 113.604 101.773 113.919C102.757 114.234 103.748 114.479 104.745 114.657C114.413 116.387 126.894 117.505 143.007 117.505C126.896 117.505 114.413 118.622 104.745 120.353C103.748 120.531 102.757 120.775 101.773 121.091C100.787 121.406 99.8124 121.789 98.847 122.236C97.8832 122.686 96.9315 123.202 95.9936 123.781C95.054 124.364 94.1334 125.008 93.2283 125.715C92.3231 126.424 91.4387 127.193 90.5732 128.023C89.7095 128.853 88.8664 129.743 88.0475 130.688C87.2303 131.637 86.4372 132.639 85.67 133.694C84.9028 134.75 84.1649 135.859 83.4546 137.015C82.746 138.175 82.0667 139.38 81.4202 140.632C80.7737 141.885 80.1599 143.179 79.5789 144.513C78.9996 145.85 78.4548 147.227 77.9462 148.637C77.4376 150.05 76.967 151.494 76.5325 152.971C76.0998 154.449 75.705 155.952 75.3481 157.486C74.9929 159.017 74.6774 160.571 74.4016 162.144C74.1275 163.72 73.893 165.31 73.6999 166.92C73.5068 168.527 73.3568 170.146 73.2482 171.773C72.1879 187.557 71.5034 207.931 71.5034 234.236C71.5034 207.934 70.819 187.557 69.7587 171.773C69.6501 170.146 69.5001 168.527 69.307 166.92C69.1139 165.31 68.8794 163.72 68.6053 162.144C68.3295 160.571 68.014 159.017 67.6588 157.486C67.3019 155.952 66.9071 154.449 66.4744 152.971C66.0399 151.494 65.5693 150.05 65.0607 148.637C64.5503 147.227 64.0073 145.85 63.4263 144.513C62.847 143.179 62.2332 141.885 61.5867 140.632C60.9402 139.38 60.2609 138.175 59.5523 137.015C58.842 135.859 58.1041 134.75 57.3369 133.694C56.5697 132.639 55.7766 131.637 54.9577 130.691C54.1388 129.743 53.2974 128.853 52.432 128.023C51.5682 127.193 50.682 126.424 49.7786 125.715C48.8735 125.008 47.9511 124.364 47.0133 123.781C46.0754 123.202 45.1237 122.686 44.1582 122.236C43.1945 121.789 42.2187 121.406 41.2342 121.091C40.2498 120.775 39.2585 120.531 38.2619 120.353C28.5917 118.622 16.1113 117.505 0 117.505C16.1113 117.505 28.5917 116.387 38.2619 114.657C39.2585 114.479 40.2498 114.234 41.2342 113.919C42.2187 113.604 43.1945 113.221 44.1582 112.774C45.1237 112.323 46.0754 111.808 47.0133 111.228C47.9511 110.646 48.8735 110.001 49.7786 109.295C50.682 108.585 51.5682 107.817 52.432 106.984C53.2974 106.154 54.1388 105.267 54.9577 104.319C55.7766 103.373 56.5697 102.371 57.3369 101.315C58.1041 100.26 58.842 99.151 59.5523 97.9942C60.2609 96.8346 60.9402 95.63 61.5867 94.3775C62.2332 93.125 62.847 91.8303 63.4263 90.4934C64.0073 89.1565 64.5503 87.783 65.0607 86.3701C65.5693 84.96 66.0399 83.5133 66.4744 82.0384C66.9071 80.5608 67.3019 79.055 67.6588 77.5239C68.014 75.9927 68.3295 74.4391 68.6053 72.8629C68.8794 71.2896 69.1139 69.6965 69.307 68.0894C69.5001 66.4823 69.6501 64.8639 69.7587 63.2371C70.819 47.4502 71.5034 27.0783 71.5034 0.773315C71.5034 27.0755 72.1879 47.4502 73.2482 63.2371Z" fill="#C19632"/>
</g>
</g>
</g>
</svg>
